<svg xmlns="http://www.w3.org/2000/svg" width="100%" height="100%" viewBox="0 0 430 430" transform="translate3d(0px, 0px, 0px)"><defs><clipPath id="n"><path d="M0 0h430v430H0z"/></clipPath><clipPath id="G"><path d="M0 0h430v430H0z"/></clipPath><clipPath id="D"><path d="M0 0h430v430H0z"/></clipPath><clipPath id="A"><path d="M0 0h430v430H0z"/></clipPath><clipPath id="x"><path d="M0 0h430v430H0z"/></clipPath><clipPath id="u"><path d="M0 0h430v430H0z"/></clipPath><clipPath id="j"><path d="M0 0h430v430H0z"/></clipPath><clipPath id="r"><path d="M0 0h430v430H0z"/></clipPath><clipPath id="l"><path d="M0 0h430v430H0z"/></clipPath><clipPath id="o"><path d="M0 0h430v430H0z"/></clipPath><clipPath id="m"><path d="M0 0h430v430H0z"/></clipPath><mask id="I"/><mask id="E"/><mask id="C"/><mask id="z"/><mask id="k"><g><path fill="#fff" d="M0 0h430v430H0z" opacity="0"/></g></mask><mask id="w"/><mask id="t"/><mask id="q"/><g id="a" fill-opacity="0" stroke-linecap="round" stroke-linejoin="round"><path/><path/></g><g id="b" fill-opacity="0" stroke-linecap="round" stroke-linejoin="round" stroke-width="12.04"><path stroke="#08A88A" d="M222.442 81.989h-38.658"/><path stroke="#121331" d="M279.212 245.705v54.392c0 12.705-10.382 23.087-23.087 23.087H150.101c-12.705 0-23.088-10.382-23.088-23.087V77.968c0-12.695 10.383-23.088 23.088-23.088h106.024c12.705 0 23.087 10.393 23.087 23.088v124.395m0 43.342-48.808-16.8c-11.059-3.738-17.055-15.849-13.326-26.908 2.98-8.838 11.306-14.441 20.172-14.441-.786.018 4.516.356 6.746 1.115l35.216 13.692 32.493 11.324s.037.01.046.028c4.99 2.623 8.939 7.202 10.575 13.024l15.547 55.425 10.794 33.544s-58.98 39.457-88.475 59.181l-55.9-51.705m144.366-7.468 17.996 26.89-88.447 59.2-18.015-26.918"/></g><g id="c" fill-opacity="0" stroke-linecap="round" stroke-linejoin="round"><path/><path/></g><g id="d" fill-opacity="0" stroke-linecap="round" stroke-linejoin="round"><path/><path/></g><g id="g" fill-opacity="0" stroke-linecap="round" stroke-linejoin="round" clip-path="url(#j)"><g mask="url(#k)"><path/><path/></g><g><path/><path/></g></g><g id="h" fill-opacity="0" stroke-linecap="round" stroke-linejoin="round" clip-path="url(#l)"><g><path/><path/></g><path/></g><g id="i" fill-opacity="0" stroke-linecap="round" stroke-linejoin="round" clip-path="url(#m)"><g><path/><path/></g><g><path/><path/></g></g><path id="f"/></defs><g clip-path="url(#n)"><g clip-path="url(#o)" mask="url(#q)"><g><path/></g><g><path/></g></g><g clip-path="url(#r)" mask="url(#t)"><g><path/></g><g><path/></g></g><g clip-path="url(#u)" mask="url(#w)"><g><path/></g><g><path/></g></g><g clip-path="url(#x)" mask="url(#z)"><g><path/></g><g><path/></g></g><g clip-path="url(#A)" mask="url(#C)"><g><path/></g><g><path/></g></g><g clip-path="url(#D)" mask="url(#E)"><g transform="rotate(-94 238.762 -16.565) scale(2.4)"><g><path fill="#4BE1EC" d="M0-250c137.975 0 250 112.025 250 250S137.975 250 0 250-250 137.975-250 0-137.975-250 0-250z"/></g><g><path fill="#CB5EEE" d="M113.242-295.384c97.478 0 176.5 79.022 176.5 176.5s-79.022 176.5-176.5 176.5c-43.948 0-74.396-34.057-105.29-60.631-37.631-32.369-71.21-62.338-71.21-115.869 0-97.478 79.022-176.5 176.5-176.5z"/></g></g></g><g clip-path="url(#G)" mask="url(#I)"><g><path/></g><g><path/></g></g></g></svg>